<svg width="1024" height="100" viewBox="0 0 1024 100" xmlns="http://www.w3.org/2000/svg"><title>ENLIVEN_logos_outlined copy</title><g id="Page-1" fill="none" fill-rule="evenodd"><g id="ENLIVEN_logos_outlined-copy" fill="#FFF"><path d="M0 .277V99.11h75.255V79.768H21.602V59.012h46.594V39.669H21.602V19.62h52.946V.277H0zM160.383.277h20.049l46.311 60.854V.277h21.461v98.834h-18.496l-47.864-62.83v62.83h-21.461V.277zM337.708.277h21.743v79.067h49.276v19.767h-71.019V.277zM512.574.277h21.744l-36.554 98.834h-21.742L512.574.277zM595.646.277h24.002l25.838 69.607L671.324.277h23.438l-39.957 99.54h-19.201L595.646.277zM775.796.277h74.548V19.62h-52.946v20.049h46.593v19.343h-46.593v20.756h53.653v19.343h-75.255V.277zM1002.539.277v60.854L956.229.277H936.18V99.11h21.461V36.281l47.863 62.829H1024V.277h-21.461z" id="Shape"/></g></g></svg>