<?xml version="1.0" encoding="UTF-8" standalone="no"?>
<svg width="1024px" height="100px" viewBox="0 0 1024 100" version="1.1" xmlns="http://www.w3.org/2000/svg" xmlns:xlink="http://www.w3.org/1999/xlink">
    <!-- Generator: Sketch 3.6.1 (26313) - http://www.bohemiancoding.com/sketch -->
    <title>ENLIVEN_logos_outlined copy</title>
    <desc>Created with Sketch.</desc>
    <defs></defs>
    <g id="Page-1" stroke="none" stroke-width="1" fill="none" fill-rule="evenodd">
        <g id="ENLIVEN_logos_outlined-copy" fill="#FFFFFF">
            <path d="M0,0.277 L0,99.11 L75.255,99.11 L75.255,79.768 L21.602,79.768 L21.602,59.012 L68.196,59.012 L68.196,39.669 L21.602,39.669 L21.602,19.62 L74.548,19.62 L74.548,0.277 L0,0.277 Z" id="Shape"></path>
            <path d="M160.383,0.277 L180.432,0.277 L226.743,61.131 L226.743,0.277 L248.204,0.277 L248.204,99.111 L229.708,99.111 L181.844,36.281 L181.844,99.111 L160.383,99.111 L160.383,0.277 Z" id="Shape"></path>
            <path d="M337.708,0.277 L359.451,0.277 L359.451,79.344 L408.727,79.344 L408.727,99.111 L337.708,99.111 L337.708,0.277 Z" id="Shape"></path>
            <path d="M512.574,0.277 L534.318,0.277 L497.764,99.111 L476.022,99.111 L512.574,0.277 Z" id="Shape"></path>
            <path d="M595.646,0.277 L619.648,0.277 L645.486,69.884 L671.324,0.277 L694.762,0.277 L654.805,99.817 L635.604,99.817 L595.646,0.277 Z" id="Shape"></path>
            <path d="M775.796,0.277 L850.344,0.277 L850.344,19.62 L797.398,19.62 L797.398,39.669 L843.991,39.669 L843.991,59.012 L797.398,59.012 L797.398,79.768 L851.051,79.768 L851.051,99.111 L775.796,99.111 L775.796,0.277 Z" id="Shape"></path>
            <path d="M1002.539,0.277 L1002.539,61.131 L956.229,0.277 L936.18,0.277 L936.18,99.11 L957.641,99.11 L957.641,36.281 L1005.504,99.11 L1024,99.11 L1024,0.277 L1002.539,0.277 Z" id="Shape"></path>
        </g>
    </g>
</svg>